<svg width="1200" height="1200" viewBox="0 0 1200 1200" fill="none" xmlns="http://www.w3.org/2000/svg">
<path d="M1015 618.794C1005.6 844.2 823.255 1024 599.694 1024C370.111 1024 184 834.391 184 600.5C184 366.605 370.111 177 599.694 177C616.96 177 633.984 178.074 650.699 180.158C474.906 196.095 337.091 346.54 337.091 529.777C337.091 723.64 491.349 880.795 681.637 880.795C841.733 880.795 976.324 769.552 1015 618.794Z" fill="#45A75A"/>
<path d="M763.572 701.302C763.572 724.515 754.864 742.27 739.855 755.155H545.059C530.05 742.27 521.342 724.515 521.342 701.302C521.342 669.005 557.965 635.206 592.785 612.053C622.884 592.037 662.03 592.037 692.128 612.053C726.949 635.207 763.572 669.005 763.572 701.302Z" fill="#EEA13E"/>
<path d="M657.942 590.325C661.401 581.755 657.258 572.004 648.688 568.544C640.118 565.085 630.366 569.228 626.907 577.798C623.448 586.368 627.591 596.12 636.161 599.579C644.731 603.039 654.483 598.895 657.942 590.325Z" fill="#EEA13E"/>
<path d="M644.32 524.599H640.593V584.097H644.32V524.599Z" fill="#EEA13E"/>
<path d="M642.457 563.298C647.683 563.298 651.919 557.694 651.919 550.781C651.919 543.868 647.683 538.264 642.457 538.264C637.231 538.264 632.994 543.868 632.994 550.781C632.994 557.694 637.231 563.298 642.457 563.298Z" fill="#EEA13E"/>
<path d="M695.613 509.11C688.735 514.434 680.106 517.605 670.735 517.605C648.271 517.605 630.061 499.397 630.061 476.932C630.061 460.541 639.756 446.416 653.725 439.978C653.529 439.973 605.697 441.823 605.697 487.518C605.697 513.779 626.983 535.066 653.244 535.066C671.729 535.066 687.747 524.517 695.613 509.11Z" fill="#EEA13E"/>
<path d="M526.116 755.155V784.996C533.881 789.952 541.885 794.55 550.112 798.764V789.684L561.887 780.853L573.661 789.684V809.536C580.666 812.368 587.805 814.935 595.059 817.219V789.684L606.834 780.854L618.612 789.684V823.554C625.654 825.126 632.786 826.445 640.007 827.492V789.684L651.785 780.854L663.559 789.684V829.929C669.54 830.301 675.569 830.491 681.638 830.491C682.745 830.491 683.855 830.484 684.958 830.469V789.684L696.732 780.853L708.51 789.684V829.243C725.687 827.644 742.503 824.526 758.801 820.006V755.154L526.116 755.155Z" fill="#EEA13E"/>
<path d="M487.298 521.942V755.438C472.949 742.523 459.841 728.204 448.175 712.696V521.943C448.175 512.411 454.986 504.475 464.011 502.739C465.218 502.504 466.463 502.381 467.737 502.381C469.012 502.381 470.256 502.504 471.463 502.739C480.484 504.475 487.298 512.411 487.298 521.942Z" fill="#EEA13E"/>
<path d="M495.227 550.566H440.244V561.744H495.227V550.566Z" fill="#EEA13E"/>
<path d="M499.023 626.742H436.448V638.667H499.023V626.742Z" fill="#EEA13E"/>
<path d="M499.024 684.065H436.449V695.989H499.024V684.065Z" fill="#EEA13E"/>
<path d="M471.462 472.272H464.01V509.459H471.462V472.272Z" fill="#EEA13E"/>
<path d="M836.739 521.942V785.383C824.261 793.286 811.186 800.25 797.616 806.193V521.942C797.616 512.411 804.427 504.475 813.452 502.738C814.659 502.504 815.904 502.381 817.178 502.381C818.453 502.381 819.697 502.504 820.905 502.738C829.925 504.475 836.739 512.411 836.739 521.942Z" fill="#EEA13E"/>
<path d="M844.669 550.566H789.686V561.744H844.669V550.566Z" fill="#EEA13E"/>
<path d="M848.465 626.742H785.89V638.667H848.465V626.742Z" fill="#EEA13E"/>
<path d="M848.465 684.064H785.89V695.989H848.465V684.064Z" fill="#EEA13E"/>
<path d="M820.904 472.272H813.452V509.459H820.904V472.272Z" fill="#EEA13E"/>
</svg>
